HIERARCHY
ROOT Hips
{
  OFFSET -33.9132 29.2015 117.021
  CHANNELS 6 Xposition Yposition Zposition Zrotation Xrotation Yrotation
  JOINT LeftUpLeg
  {
    OFFSET 8.64259 1.95398 -2.38835
    CHANNELS 3 Zrotation Xrotation Yrotation
    JOINT LeftLeg
    {
      OFFSET 43.7702 0 0
      CHANNELS 3 Zrotation Xrotation Yrotation
      JOINT LeftFoot
      {
        OFFSET 40.6238 0 0
        CHANNELS 3 Zrotation Xrotation Yrotation
        JOINT LeftToeBase
        {
          OFFSET 12.7242 0 0
          CHANNELS 3 Zrotation Xrotation Yrotation
          End Site
          {
            OFFSET 0 0 0
          }
        }
      }
    }
  }
  JOINT RightUpLeg
  {
    OFFSET -8.2249 1.95398 -2.59336
    CHANNELS 3 Zrotation Xrotation Yrotation
    JOINT RightLeg
    {
      OFFSET 43.5653 0 0
      CHANNELS 3 Zrotation Xrotation Yrotation
      JOINT RightFoot
      {
        OFFSET 40.6238 0 0
        CHANNELS 3 Zrotation Xrotation Yrotation
        JOINT RightToeBase
        {
          OFFSET 12.7242 0 0
          CHANNELS 3 Zrotation Xrotation Yrotation
          End Site
          {
            OFFSET 0 0 0
          }
        }
      }
    }
  }
  JOINT Spine
  {
    OFFSET 0.165834 0.87714 6.61349
    CHANNELS 3 Zrotation Xrotation Yrotation
    JOINT Spine1
    {
      OFFSET 7.38963 1.71661e-005 0
      CHANNELS 3 Zrotation Xrotation Yrotation
      JOINT Spine2
      {
        OFFSET 11.9445 1.14441e-005 0
        CHANNELS 3 Zrotation Xrotation Yrotation
        JOINT Spine3
        {
          OFFSET 14.7254 4.19617e-005 0
          CHANNELS 3 Zrotation Xrotation Yrotation
          JOINT Spine4
          {
            OFFSET 10.9679 0 0
            CHANNELS 3 Zrotation Xrotation Yrotation
            JOINT RightShoulder
            {
              OFFSET 2.46616 -1.6653 3.69651
              CHANNELS 3 Zrotation Xrotation Yrotation
              JOINT RightArm
              {
                OFFSET 13.0012 0 0
                CHANNELS 3 Zrotation Xrotation Yrotation
                JOINT RightForeArm
                {
                  OFFSET 28.7848 1.62311e-005 0
                  CHANNELS 3 Zrotation Xrotation Yrotation
                  JOINT RightHand
                  {
                    OFFSET 26.5688 1.62095e-005 0
                    CHANNELS 3 Zrotation Xrotation Yrotation
                    End Site
                    {
                      OFFSET 0 0 0
                    }
                  }
                }
              }
            }
            JOINT LeftShoulder
            {
              OFFSET 2.38034 -1.29275 -3.7523
              CHANNELS 3 Zrotation Xrotation Yrotation
              JOINT LeftArm
              {
                OFFSET 16.3182 6.07031e-005 0
                CHANNELS 3 Zrotation Xrotation Yrotation
                JOINT LeftForeArm
                {
                  OFFSET 27.0901 0 0
                  CHANNELS 3 Zrotation Xrotation Yrotation
                  JOINT LeftHand
                  {
                    OFFSET 24.5451 1.51738e-005 0
                    CHANNELS 3 Zrotation Xrotation Yrotation
                    End Site
                    {
                      OFFSET 0 0 0
                    }
                  }
                }
              }
            }
            JOINT Neck
            {
              OFFSET 5.0226 -0.0266342 0
              CHANNELS 3 Zrotation Xrotation Yrotation
              JOINT Head
              {
                OFFSET 6.69364 2.86102e-005 0
                CHANNELS 3 Zrotation Xrotation Yrotation
                End Site
                {
                  OFFSET 0 0 0
                }
              }
            }
          }
        }
      }
    }
  }
}
MOTION
Frames:	6
Frame Time:	0.0416667
170.15 102.94 -176.547 97.4258 -43.4839 96.7839 -173.323 0.0336092 91.6708 -17.0363 15.8721 -0.404199 72.6665 8.26425 -0.561204 17.0111 -11.1557 9.4738 174.01 -1.46496 91.4692 -12.8284 3.56399 1.19313 67.0809 -5.03571 0.801918 23.6444 1.49828 2.94278 0.348935 7.61049 -89.3355 11.6461 1.00578 1.2197 -0.0250217 1.05847 1.17425 -22.5569 0.592761 1.46555 -2.54427 0.592754 1.46554 91.2827 -27.3745 -105.154 54.7941 3.54169 -2.78834 -5.39134 -43.3208 -5.50478 -15.6362 2.07006 -20.9049 -86.1562 -43.8903 83.5189 -25.3908 -5.66794 -10.0357 -12.1927 23.8192 -0.168956 4.8324 -0.698159 -16.5258 1.24767 -10.7323 -12.6871 -2.41322 -8.7201 -5.45747 
169.2 102.548 -176.283 95.9996 -43.8289 97.7561 -171.873 4.20693 94.4757 -21.5291 17.1304 -1.12026 74.3789 8.96759 -1.07463 15.6342 -10.981 7.80636 173.035 3.79548 93.7676 -20.9764 1.08221 2.94118 67.466 -5.62456 0.0779824 24.8095 0.993495 2.93652 0.385811 7.6827 -89.3026 11.5008 1.09352 1.27775 -0.1703 1.14869 1.22838 -22.702 0.659012 1.54727 -2.68937 0.658997 1.54726 91.1544 -26.8376 -105.621 55.021 3.25654 -3.30298 -5.27695 -41.6698 -5.43648 -18.3356 2.48632 -21.1184 -86.1873 -44.1027 83.5049 -23.2597 -7.80494 -8.61768 -11.6836 25.2563 -0.00952009 4.21241 -0.653836 -17.8034 5.43913 -10.7623 -14.4578 -2.80658 -7.89369 -6.898 
168.316 102.672 -176.011 94.6717 -43.2168 99.2249 -170.985 6.85227 97.6105 -23.1915 19.2616 -1.05033 74.4596 9.31587 -0.897425 17.6879 -10.4183 8.95059 169.764 8.04424 91.3105 -21.7695 0.100795 5.85537 63.08 -2.32089 -0.424242 27.9641 -0.977512 5.40101 0.293062 7.80069 -89.3493 11.266 0.886156 1.20714 -0.405163 0.938426 1.16697 -22.9367 0.482428 1.41761 -2.92404 0.482431 1.41762 90.2046 -27.7909 -107.216 53.7585 3.68431 -3.59053 -5.13245 -39.465 -5.35426 -17.8555 2.42908 -21.1878 -86.5162 -43.3188 82.8339 -21.3953 -8.14445 -8.02015 -12.0135 24.1349 -0.022915 5.43357 -0.808281 -18.067 8.72886 -11.4119 -16.1446 -3.09603 -7.69429 -7.85105 
167.748 102.96 -175.659 93.2393 -41.1649 100.212 -170.738 8.67731 99.6924 -23.533 21.0739 -0.258795 74.4388 9.84417 -1.53526 17.2766 -10.719 9.02853 168.888 9.93422 85.7327 -19.691 4.83578 4.68512 60.702 -0.204059 0.103337 27.3102 -0.68779 5.28141 0.365784 7.80534 -89.5352 11.259 0.944286 0.832446 -0.411877 0.980007 0.790075 -22.9464 0.650454 1.07774 -2.93372 0.650452 1.07774 90.9738 -27.332 -105.81 54.1569 3.90611 -2.51637 -5.18794 -40.3292 -5.38574 -16.5931 2.20706 -20.9466 -85.9894 -41.9733 83.4613 -21.0309 -7.6971 -7.36553 -12.1256 22.279 -0.0282554 5.30569 -0.859455 -18.4768 8.59715 -13.0701 -18.4785 -2.96326 -8.86505 -6.24956 
167.055 102.752 -174.729 92.6641 -39.0129 102.167 -170.046 11.5425 102.787 -26.812 24.2592 0.382613 75.9208 11.2346 -2.20381 17.3643 -11.4738 10.3598 169.439 10.1506 79.4742 -20.3878 -1.52029 0.0190532 63.0388 -1.34894 -1.00428 24.0042 0.928458 4.34987 0.534812 7.75974 -89.8882 11.3543 1.1164 0.11082 -0.316206 1.12019 0.0615727 -22.8547 1.03149 0.441263 -2.84207 1.03148 0.441248 91.6616 -26.3976 -104.727 52.5554 5.61908 0.638492 -4.89828 -35.5973 -5.23266 -16.5208 3.17938 -27.7566 -85.3624 -41.0914 84.3548 -19.238 -7.24644 -6.69523 -12.3601 20.6051 -0.000239707 5.29983 -0.944722 -19.2132 4.56667 -13.7063 -20.3602 -1.50687 -9.93227 -6.23213 
165.99 101.921 -172.847 92.4786 -37.19 104.436 -169.59 14.8375 106.712 -31.648 27.5789 1.34264 78.1219 13.0887 -2.1599 19.3027 -10.289 10.4372 168.838 8.65837 74.7966 -21.4117 -9.18399 -2.67378 62.9251 -0.824284 -0.42321 24.2657 0.713661 4.71258 0.573319 7.76307 -90.2675 11.3495 1.01622 -0.634243 -0.321239 0.987326 -0.678354 -22.8591 1.15984 -0.29947 -2.84646 1.15983 -0.299473 92.0245 -25.5237 -104.28 50.8459 6.31452 0.849318 -4.91496 -35.8845 -5.24077 -15.2724 1.71975 -18.6318 -84.5727 -40.077 85.5274 -16.9789 -8.97471 -3.97019 -11.6585 20.9448 -0.042333 5.03072 -0.926982 -19.2464 3.23436 -14.3862 -22.9144 -2.45284 -10.381 -5.98821 
